<svg width="176" height="176" viewBox="0 0 176 176" fill="none" xmlns="http://www.w3.org/2000/svg">
<g clip-path="url(#clip0_1_4197)" filter="url(#filter0_d_1_4197)">
<path d="M166.268 3.60397C165.994 3.22269 165.692 2.87195 165.368 2.54322C165.354 2.52733 165.341 2.51022 165.326 2.49556C165.312 2.48211 165.296 2.46989 165.283 2.45645C163.471 0.662462 160.949 -0.312744 158.031 -0.312744C156.375 -0.312744 154.597 0.00010407 152.748 0.617246L16.6262 45.99C9.42454 48.3914 8.11204 52.583 7.97151 54.8671C7.82975 57.1523 8.61553 61.4736 15.464 64.7438L49.6451 81.0681L34.3485 118.841C34.3106 118.933 34.2764 119.025 34.2459 119.118C32.546 124.218 33.2303 128.803 36.1254 131.697C37.9744 133.546 40.5126 134.493 43.4346 134.493C45.0868 134.493 46.8612 134.19 48.7029 133.577C48.797 133.545 48.8886 133.512 48.9803 133.474L86.7543 118.177L103.077 152.357C106.197 158.889 110.31 159.866 112.484 159.866C114.425 159.866 119.223 159.02 121.831 151.195L167.205 15.073C168.7 10.5893 168.367 6.51615 166.268 3.60397ZM18.1207 55.4964C18.4923 55.3082 18.9786 55.1005 19.5946 54.8952L149.638 11.5462L76.2714 84.914C73.5951 82.6629 70.7966 80.7687 68.1422 79.5014L19.5078 56.2737C18.9224 55.9938 18.4666 55.7286 18.1207 55.4964ZM45.6062 124.715C43.9869 125.235 43.0692 125.146 42.7759 125.047C42.6769 124.752 42.5877 123.835 43.1071 122.216L58.1299 85.1205L64.0972 87.9716C69.7774 90.6833 77.1378 98.045 79.8508 103.724L82.7019 109.693L45.6062 124.715ZM112.927 148.228C112.722 148.845 112.514 149.33 112.326 149.702C112.093 149.356 111.826 148.9 111.546 148.312L88.3197 99.6789C87.0524 97.0246 85.1582 94.2273 82.9072 91.5498L156.276 18.182L112.927 148.228Z" fill="white"/>
</g>
<defs>
<filter id="filter0_d_1_4197" x="-0.169028" y="0" width="175.805" height="175.805" filterUnits="userSpaceOnUse" color-interpolation-filters="sRGB">
<feFlood flood-opacity="0" result="BackgroundImageFix"/>
<feColorMatrix in="SourceAlpha" type="matrix" values="0 0 0 0 0 0 0 0 0 0 0 0 0 0 0 0 0 0 127 0" result="hardAlpha"/>
<feOffset dy="7.81356"/>
<feGaussianBlur stdDeviation="3.90678"/>
<feComposite in2="hardAlpha" operator="out"/>
<feColorMatrix type="matrix" values="0 0 0 0 0 0 0 0 0 0 0 0 0 0 0 0 0 0 0.25 0"/>
<feBlend mode="normal" in2="BackgroundImageFix" result="effect1_dropShadow_1_4197"/>
<feBlend mode="normal" in="SourceGraphic" in2="effect1_dropShadow_1_4197" result="shape"/>
</filter>
<clipPath id="clip0_1_4197">
<rect width="160.178" height="160.178" fill="white" transform="translate(7.64453)"/>
</clipPath>
</defs>
</svg>
