<svg width="162" height="162" viewBox="0 0 162 162" fill="none" xmlns="http://www.w3.org/2000/svg">
<g clip-path="url(#clip0_1_6795)">
<path d="M87.6892 115.12C91.1634 115.12 93.9799 112.304 93.9799 108.83C93.9799 105.355 91.1634 102.539 87.6892 102.539C84.2149 102.539 81.3984 105.355 81.3984 108.83C81.3984 112.304 84.2149 115.12 87.6892 115.12Z" fill="white"/>
<path d="M108.763 148.461H30.4437C23.5063 148.461 17.8622 142.817 17.8622 135.879V84.2954C17.8622 77.358 23.5063 71.714 30.4437 71.714H121.03C122.463 71.714 123.599 71.8404 124.505 72.0999C127.845 73.0567 131.328 71.1248 132.285 67.7851C133.242 64.4454 131.31 60.9622 127.97 60.005C125.921 59.4181 123.651 59.1328 121.03 59.1328H113.47V36.9473C113.47 16.5745 96.5375 0 75.7253 0C54.913 0 37.9809 16.5745 37.9809 36.9473V59.1328H30.4437C16.5688 59.1328 5.28076 70.4209 5.28076 84.2957V135.88C5.28076 149.755 16.5688 161.043 30.4437 161.043H108.763C112.238 161.043 115.054 158.226 115.054 154.752C115.054 151.278 112.238 148.461 108.763 148.461ZM50.5624 36.9473C50.5624 23.5119 61.8504 12.5815 75.7253 12.5815C89.6001 12.5815 100.888 23.5119 100.888 36.9473V59.1328H50.5624V36.9473Z" fill="white"/>
<path d="M64.0988 115.12C67.5731 115.12 70.3896 112.304 70.3896 108.83C70.3896 105.355 67.5731 102.539 64.0988 102.539C60.6246 102.539 57.8081 105.355 57.8081 108.83C57.8081 112.304 60.6246 115.12 64.0988 115.12Z" fill="white"/>
<path d="M156.292 104.178C156.155 91.977 146.186 82.094 133.954 82.094C121.636 82.094 111.614 92.1158 111.614 104.434C111.614 107.908 114.43 110.725 117.904 110.725C121.379 110.725 124.195 107.908 124.195 104.434C124.195 99.0532 128.573 94.6754 133.954 94.6754C139.335 94.6754 143.713 99.0532 143.713 104.434C143.713 104.491 143.713 104.548 143.715 104.605C143.65 108.457 141.336 111.905 137.781 113.423C131.635 116.048 127.663 122.11 127.663 128.867V134.307C127.663 137.781 130.48 140.598 133.954 140.598C137.428 140.598 140.245 137.781 140.245 134.307V128.867C140.245 127.156 141.217 125.636 142.722 124.994C150.971 121.472 156.3 113.402 156.298 104.433C156.298 104.347 156.296 104.262 156.292 104.178Z" fill="white"/>
<path d="M133.926 161.043C137.4 161.043 140.217 158.226 140.217 154.752C140.217 151.278 137.4 148.461 133.926 148.461C130.452 148.461 127.635 151.278 127.635 154.752C127.635 158.226 130.452 161.043 133.926 161.043Z" fill="white"/>
<path d="M40.509 115.12C43.9833 115.12 46.7997 112.304 46.7997 108.83C46.7997 105.355 43.9833 102.539 40.509 102.539C37.0347 102.539 34.2183 105.355 34.2183 108.83C34.2183 112.304 37.0347 115.12 40.509 115.12Z" fill="white"/>
</g>
<defs>
<clipPath id="clip0_1_6795">
<rect width="161.043" height="161.043" fill="white" transform="translate(0.888672)"/>
</clipPath>
</defs>
</svg>
